<svg version="1" xmlns="http://www.w3.org/2000/svg" width="401.333" height="401.333" viewBox="0 0 301.000000 301.000000"><path d="M151 54.9v54.8l10.2-10.3L171.4 89h81.1l-50.7 50.7-50.8 50.7 2.8 2.9c4.5 4.7 17.1 12.5 25.7 15.8 36.8 14.3 78.2 1.2 100-31.6 6.3-9.4 10.8-19.9 12.1-28 .3-1.7.7-3.7 1-4.5 1.3-3.3 1.2-20.9-.1-28-5-27.5-21.3-49-46-61-13.8-6.6-22-8.5-37.5-8.3-12.2.1-15.5.7-32.2 6-1.7.5-1.8-.6-1.8-14.1 0-8 .3-14.6.8-14.7.4-.1 21-.2 45.8-.3l45.1-.1 11.6-11.8C284.7 6.1 290 .6 290 .4c0-.2-31.3-.4-69.5-.4H151v54.9zM77 87.1c-25.4 4.3-49 21.7-60.4 44.6-12 23.9-12.6 49.3-1.5 73.1 8.9 19.2 22 32.3 41 41.1 19.8 9 44.3 10.1 63.7 2.7l6.2-2.4V261c0 10.9-.3 14.9-1.2 15.2-.7.2-21.3.4-45.7.4l-44.4-.1-12 12-11.9 12 69.2.3c38.1.1 69.5 0 69.7-.2.6-.5.9-108.6.3-108.6-.3 0-5 4.5-10.5 10l-10 10h-81l50.8-50.8 50.9-50.9-4.9-4.3c-10-8.8-23.4-15.3-38.3-18.4-7.6-1.6-22.2-1.8-30-.5z"/></svg>